<svg role="img" viewBox="-0.1 -0.1 21.2 24.4" xmlns="http://www.w3.org/2000/svg"><title>note</title><path fill-rule="evenodd" d="m9.206 10.66h-2.855c-.338 0-.45-.018-.623-.07-.467-.138-.831-.605-.831-1.159s.364-1.02.83-1.16c.174-.051.286-.068.624-.068h1.851v-1.853c0-.338.018-.45.07-.623.138-.476.605-.831 1.159-.831.553 0 1.021.363 1.16.831.051.173.069.285.069.623v2.855c0 .173 0 .346-.035.502a1.264 1.264 0 0 1-.917.917c-.156.035-.329.035-.502.035zm9.171 10.486h-15.314v-13.489c0-.173.06-.32.181-.44l3.972-3.973a.601.601 0 0 1 .441-.181h10.72zm-17.633-15.755c-.407.406-.674.917-.727 1.488a4.366 4.366 0 0 0-.017.371v15.254c0 .199.009.302.017.38.07.65.658 1.238 1.307 1.307.078.008.182.017.38.017h18.032c.199 0 .303-.009.38-.017.65-.07 1.238-.658 1.307-1.307.009-.078.017-.181.017-.38v-20.8c0-.2-.008-.303-.017-.381-.07-.649-.658-1.237-1.306-1.306a3.252 3.252 0 0 0-.381-.017h-12.486a4.13 4.13 0 0 0-.372.018c-.572.051-1.082.32-1.489.726z"/></svg>
